<!--?xml version="1.0" standalone="no"?-->
              <svg id="sw-js-blob-svg" viewBox="0 0 100 100" xmlns="http://www.w3.org/2000/svg" version="1.1">
                    <defs> 
                        <linearGradient id="sw-gradient" x1="0" x2="1" y1="1" y2="0">
                            <stop id="stop1" stop-color="rgba(30, 58, 138, 1)" offset="0%"></stop>
                            <stop id="stop2" stop-color="rgba(251, 168, 31, 1)" offset="100%"></stop>
                        </linearGradient>
                    </defs>
                <path fill="rgba(30, 58, 138, 1)" d="M23.5,-27.2C30.6,-22.2,36.4,-14.8,38.2,-6.4C40,1.9,37.9,11.3,33.6,20.2C29.4,29.1,23.1,37.7,14.5,41.7C5.8,45.7,-5.2,45.1,-13.8,40.8C-22.3,36.4,-28.4,28.1,-32.9,19.5C-37.3,10.8,-40.2,1.6,-39.2,-7.5C-38.3,-16.5,-33.6,-25.5,-26.4,-30.5C-19.2,-35.5,-9.6,-36.7,-0.7,-35.8C8.3,-35,16.5,-32.3,23.5,-27.2Z" width="100%" height="100%" transform="translate(50 50)" stroke-width="0" style="transition: all 0.3s ease 0s;"></path>
              </svg>