<!--?xml version="1.0" standalone="no"?-->
              <svg id="sw-js-blob-svg" viewBox="0 0 100 100" xmlns="http://www.w3.org/2000/svg" version="1.1">
                    <defs> 
                        <linearGradient id="sw-gradient" x1="0" x2="1" y1="1" y2="0">
                            <stop id="stop1" stop-color="rgba(239, 246, 255, 1)" offset="0%"></stop>
                            <stop id="stop2" stop-color="rgba(38.957, 60.526, 103.665, 1)" offset="100%"></stop>
                        </linearGradient>
                    </defs>
                <path fill="rgba(239, 246, 255, 1)" d="M21.7,-23.1C29.8,-19.2,39,-13.8,41.5,-6.3C44.1,1.3,40.1,11,34.3,18.7C28.6,26.4,21.1,31.9,13.4,33C5.8,34.1,-2.1,30.8,-10,27.8C-17.9,24.8,-25.9,22.2,-30.6,16.5C-35.3,10.8,-36.8,2,-33.7,-4.4C-30.7,-10.8,-23.2,-14.8,-16.9,-19C-10.5,-23.2,-5.3,-27.6,0.8,-28.6C6.9,-29.5,13.7,-27,21.7,-23.1Z" width="100%" height="100%" transform="translate(50 50)" stroke-width="0" style="transition: all 0.3s ease 0s;"></path>
              </svg>