<?xml version="1.0" encoding="utf-8"?>
<!-- Generator: Adobe Illustrator 25.4.0, SVG Export Plug-In . SVG Version: 6.00 Build 0)  -->
<svg version="1.1" id="Calque_1" xmlns="http://www.w3.org/2000/svg" xmlns:xlink="http://www.w3.org/1999/xlink" x="0px" y="0px"
	 viewBox="0 0 344 344" style="enable-background:new 0 0 344 344;" xml:space="preserve">
<style type="text/css">
	.st0{clip-path:url(#SVGID_00000155845439127079393740000012278953798239969430_);}
	.st1{fill:#FFFFFF;}
</style>
<g>
	<defs>
		<rect id="SVGID_1_" width="344" height="344"/>
	</defs>
	<clipPath id="SVGID_00000101801789711852221870000013326684044800044687_">
		<use xlink:href="#SVGID_1_"  style="overflow:visible;"/>
	</clipPath>
	<g style="clip-path:url(#SVGID_00000101801789711852221870000013326684044800044687_);">
		<path class="st1" d="M0,166c0.81-2.82,1.42-5.71,2.45-8.45c6.52-17.43,19.15-28.31,37.59-28.94c30.93-1.06,61.92-0.29,94.12-0.29
			c-1.58,1.99-2.24,3.02-3.08,3.86c-26.48,26.52-52.95,53.05-79.56,79.44c-1.52,1.51-4.39,2.71-6.44,2.46
			c-6.89-0.86-13.97-1.65-20.47-3.91c-13.98-4.86-21.69-15.29-23.73-29.94C0.76,179.46,0.3,178.74,0,178C0,174,0,170,0,166z"/>
		<path class="st1" d="M180,0c1.91,0.46,3.82,0.9,5.73,1.37c21.91,5.41,31.39,23.71,31.8,42.94c0.03,1.29-0.84,2.88-1.78,3.87
			C202.51,62,189.18,75.74,175.5,89.89c-1.38-1.3-2.69-2.45-3.91-3.7c-11.52-11.79-22.83-23.8-34.64-35.3
			c-4.08-3.97-4.81-8.01-3.57-12.95c4.94-19.67,16.12-33.21,36.82-37.37C170.5,0.51,170.74,0.2,171,0C174,0,177,0,180,0z"/>
		<path class="st1" d="M75.02,306.32c-11.7-0.33-24.68-7.7-32.41-22.77c-7.87-15.32-6.69-30.57,2.95-44.94
			c1.75-2.61,3.94-4.97,6.16-7.2c60-60.19,120.01-120.37,180.07-180.48c16.13-16.15,39.39-18.13,56.66-5.1
			c21.02,15.86,23,45.99,4,65.47c-16.05,16.46-32.47,32.57-48.71,48.86c-43.89,44.01-87.81,87.99-131.64,132.07
			C103.24,301.13,92.99,306.46,75.02,306.32z"/>
		<path class="st1" d="M209.8,214.1c0.88-0.95,1.73-1.93,2.64-2.84c26.35-26.15,52.75-52.24,78.97-78.51
			c2.97-2.98,5.87-3.67,9.77-3.2c18,2.19,32.15,10.05,38.85,27.66c10.46,27.51-7.7,56.53-37.62,57.91
			c-30.7,1.42-61.51,0.31-92.27,0.31C210.03,214.99,209.91,214.54,209.8,214.1z"/>
		<path class="st1" d="M179.82,243.07c4.76-4.47,8.89-8.57,13.29-12.36c1.21-1.05,3.22-1.65,4.87-1.65
			c27.79,0.01,55.59,0.12,83.38,0.3c1.55,0.01,3.53,0.29,4.59,1.25c15.53,14.07,21.68,31.91,13.86,51.74
			c-10.59,26.88-45.52,35.87-66.57,16.18C214.82,281.29,198.11,262.2,179.82,243.07z"/>
		<path class="st1" d="M163.34,100.69c-4.72,4.44-8.97,8.65-13.48,12.56c-1.21,1.05-3.23,1.64-4.87,1.64
			c-27.8-0.12-55.61-0.35-83.41-0.63c-1.55-0.02-3.53-0.28-4.59-1.23C38.81,96.77,35.47,75.72,45.3,57.15
			c12.37-23.35,44.18-30.37,63.59-12.58C127.85,61.95,144.86,81.47,163.34,100.69z"/>
		<path class="st1" d="M169.4,255.17c14.64,13.73,28.86,27.03,42.97,40.43c0.93,0.89,1.62,2.64,1.53,3.92
			c-1.53,20.34-15.46,37.98-33.68,42.44c-23.52,5.75-45.92-9.42-50.4-33.26c-1.46-7.74-0.19-13.32,5.75-18.95
			C147.72,278.19,159.07,265.81,169.4,255.17z"/>
	</g>
</g>
</svg>
